<svg width="216" height="99" viewBox="0 0 216 99" fill="none" xmlns="http://www.w3.org/2000/svg">
<path d="M108.54 0.0999985C105.596 0.512806 102.736 2.68692 101.292 5.57656C100.737 6.64986 100.626 7.31035 100.626 9.48446C100.626 11.8237 100.709 12.264 101.403 13.6125C102.764 16.2545 104.708 17.8782 107.429 18.6763C109.428 19.2542 110.9 19.2267 113.122 18.5387C115.649 17.7681 118.175 15.4014 119.092 12.9245C121.646 6.01689 115.926 -0.918257 108.54 0.0999985Z" fill="#DE4848"/>
<path d="M24.6028 19.2594C20.904 19.792 18.5123 20.4367 16.2318 21.5298C7.69385 25.6502 2.54885 32.1812 0.490847 41.5432C-0.0931801 44.206 -0.176613 50.4567 0.351793 53.7362C2.02044 64.4156 6.30331 71.339 12.6164 73.5253C14.8969 74.3101 20.1253 74.2541 22.7951 73.4132C24.7419 72.8246 27.4117 71.1147 28.6076 69.7132C29.1082 69.1526 28.9969 69.1807 27.9401 69.8814C26.8833 70.5822 26.4383 70.6943 24.8253 70.6943C23.1567 70.6943 22.8507 70.6102 21.8774 69.8254C21.2933 69.3489 20.5703 68.4799 20.2643 67.8633C19.7359 66.7981 19.7081 66.2095 19.7081 45.4674C19.7081 21.7261 19.5691 23.3798 21.6271 21.5579C24.0466 19.3996 28.0792 20.2405 29.581 23.2116C30.1372 24.2768 30.1372 24.7533 30.0816 45.8878C30.0259 57.7445 30.0538 67.4989 30.1372 67.5549C30.2206 67.583 30.1928 73.273 30.0538 80.1684L29.8035 92.7258L30.5543 94.2674C31.3609 95.9492 32.8905 97.1825 34.726 97.7151C35.4212 97.9113 38.7307 98.0234 43.403 98.0234H50.9953L51.0509 82.1305L51.1344 66.2656L51.9409 67.4989C54.1101 70.7503 57.7533 73.3011 61.2019 73.9458C63.2321 74.3382 67.5984 74.0859 69.6286 73.4692C71.4919 72.9086 73.6055 71.5632 75.0517 69.9655C75.9972 68.9284 76.025 68.8723 75.2742 69.489C72.6877 71.5912 69.2392 71.1147 67.3759 68.3678L66.7084 67.3587L66.625 45.9719C66.5694 25.454 66.5694 24.501 67.0978 23.3518C67.8765 21.5298 69.3226 20.5768 71.4084 20.4367C73.6611 20.2965 75.302 21.1374 76.2197 22.9033L76.8594 24.1366L76.8037 45.9159C76.7481 57.8846 76.8037 67.639 76.8872 67.583C76.9984 67.5269 77.1375 68.0595 77.2487 68.7322C77.4434 70.3579 77.9996 71.395 79.2789 72.6564C80.9476 74.3101 82.06 74.4783 90.5423 74.4783H98.0234L97.9122 53.3718C97.7731 30.4714 97.7453 29.7426 96.2157 26.9676C94.2968 23.4079 91.2654 21.2495 86.0926 19.7359C84.1458 19.1753 83.3393 19.1193 77.6937 19.1193C71.1303 19.1193 68.2936 19.4837 64.9563 20.6889C60.1729 22.4268 55.5007 25.9305 52.358 30.107C51.7184 31.004 51.0787 31.8448 50.9675 31.957C50.8563 32.0971 50.6338 31.3683 50.4669 30.3312C49.9941 27.6123 49.1876 26.0987 47.1296 24.0245C45.0438 21.9503 42.9024 20.745 39.4538 19.792C37.5905 19.2875 36.339 19.1753 31.8058 19.0912C28.8301 19.0632 25.5762 19.1193 24.6028 19.2594Z" fill="#DE4848"/>
<path d="M111.598 40.5246C111.598 40.928 110.841 41.3315 109.681 41.5333C106.957 41.9368 105.293 43.8534 105.293 46.6273C105.293 49.3509 106.503 50.7631 109.429 51.5197C110.639 51.7719 111.598 52.2258 111.598 52.478C111.598 52.7301 111.951 52.9319 112.354 52.9319C112.758 52.9319 113.111 52.7301 113.111 52.5284C113.111 52.2762 114.018 51.8223 115.128 51.4692C117.902 50.6623 119.163 49.1492 119.163 46.7282C119.163 45.6691 118.911 44.3577 118.659 43.8029C118.053 42.6933 115.582 41.3315 114.119 41.3315C113.565 41.3315 113.111 40.9785 113.111 40.575C113.111 40.1715 112.758 39.8185 112.354 39.8185C111.951 39.8185 111.598 40.1211 111.598 40.5246ZM111.598 46.6778V50.5109L110.236 50.1579C108.47 49.7544 107.563 48.9979 107.008 47.5352C106.201 45.4169 108.117 42.9959 110.74 42.8951C111.497 42.8446 111.598 43.349 111.598 46.6778ZM116.339 43.9038C118.406 45.5178 118.053 48.3926 115.582 49.6535C113.262 50.864 113.111 50.6623 113.111 46.6273C113.111 43.2481 113.211 42.8446 114.069 42.8446C114.573 42.8446 115.582 43.2986 116.339 43.9038Z" fill="#DE4848"/>
<path d="M124.003 42.9447C123.348 44.4074 122.087 47.1309 121.229 48.9971C119.868 52.1241 119.817 52.4268 120.624 52.4268C121.179 52.4268 121.835 51.8215 122.188 50.9137C122.793 49.451 122.944 49.4006 125.97 49.4006C128.997 49.4006 129.148 49.451 129.753 50.9137C130.106 51.8215 130.762 52.4268 131.317 52.4268C132.073 52.4268 131.821 51.5693 129.501 46.4753C127.887 42.9447 126.525 40.5238 126.021 40.4229C125.466 40.2716 124.81 41.0786 124.003 42.9447ZM126.172 47.7866C125.012 47.8875 124.003 47.8371 123.903 47.7362C123.751 47.5849 124.155 46.4248 124.81 45.1135L125.97 42.743L127.08 45.2144L128.24 47.6353L126.172 47.7866Z" fill="#DE4848"/>
<path d="M134.29 46.3744V52.4268H138.073C142.41 52.4268 143.873 51.5189 143.873 48.9467C143.873 46.677 141.855 45.3657 138.527 45.3657H135.803V43.6004V41.8351H139.334C142.158 41.8351 142.864 41.6838 142.864 41.0786C142.864 40.4734 142.057 40.3221 138.577 40.3221H134.29V46.3744ZM141.553 47.6857C142.511 48.644 142.562 48.9467 141.704 50.1067C141.25 50.7119 140.141 51.1154 138.426 51.3172L135.803 51.5693V49.1988V46.8788H138.275C139.888 46.8788 141.049 47.1814 141.553 47.6857Z" fill="#DE4848"/>
<path d="M146.396 46.324C146.396 51.418 146.497 52.4268 147.153 52.4268C147.657 52.4268 147.91 51.872 147.91 50.6615C147.91 48.8962 147.91 48.8962 150.179 48.8962C152.953 48.8962 154.718 48.1397 155.425 46.5257C156.282 44.71 156.08 43.55 154.769 41.9864C153.71 40.776 153.155 40.5742 149.977 40.4229L146.396 40.2212V46.324ZM152.852 42.6421C154.265 43.6508 154.365 46.1222 153.004 46.8788C152.449 47.1309 151.087 47.3831 149.977 47.3831H147.91V44.6091V41.8351H149.826C150.885 41.8351 152.247 42.1882 152.852 42.6421Z" fill="#DE4848"/>
<path d="M158.5 46.3744C158.5 51.3172 158.651 52.4268 159.206 52.4268C159.61 52.4268 161.577 50.3589 163.493 47.8371L167.074 43.1969V47.8371C167.074 51.5693 167.225 52.4268 167.831 52.4268C168.486 52.4268 168.587 51.418 168.587 46.3744C168.587 41.4316 168.436 40.3221 167.881 40.3221C167.478 40.3221 165.511 42.3899 163.594 44.9118L160.013 49.5519V44.9118C160.013 41.1795 159.862 40.3221 159.257 40.3221C158.651 40.3221 158.5 41.3308 158.5 46.3744Z" fill="#DE4848"/>
<path d="M172.118 46.3744C172.118 51.418 172.269 52.4268 172.875 52.4268C173.43 52.4268 173.631 51.8215 173.631 49.9049C173.631 47.6353 173.732 47.3831 174.791 47.3831C175.598 47.3831 176.557 48.1901 177.868 49.9049C179.482 52.0233 180.037 52.4268 181.449 52.4268C182.811 52.4268 183.214 52.1746 183.719 50.9137C184.324 49.451 184.475 49.4006 187.501 49.4006C190.527 49.4006 190.679 49.451 191.284 50.9137C191.637 51.8215 192.293 52.4268 192.847 52.4268C193.604 52.4268 193.352 51.5693 191.032 46.4753C189.468 42.9952 188.006 40.5238 187.552 40.4229C186.745 40.2716 186.442 40.8768 182.558 49.5519L181.449 51.9728L179.583 49.451C177.717 46.9796 177.263 45.6683 178.07 45.1639C178.271 45.0631 179.179 43.903 180.087 42.6421C181.499 40.6751 181.6 40.3221 180.844 40.3221C180.339 40.3221 178.977 41.5325 177.817 43.096C176.456 44.8109 175.296 45.87 174.64 45.87C173.732 45.87 173.631 45.517 173.631 43.096C173.631 40.9777 173.48 40.3221 172.875 40.3221C172.269 40.3221 172.118 41.3308 172.118 46.3744ZM187.703 47.7866C186.543 47.8875 185.534 47.8371 185.433 47.7362C185.282 47.5849 185.686 46.4248 186.341 45.1135L187.501 42.743L188.611 45.2144L189.771 47.6353L187.703 47.7866Z" fill="#DE4848"/>
<path d="M207.927 59.1346C207.927 61.1016 212.466 61.8581 213.475 60.0424C214.13 58.7311 214.13 58.4789 213.273 58.4789C212.87 58.4789 212.466 58.832 212.264 59.2355C212.113 59.6389 211.508 59.992 210.953 59.992C210.398 59.992 209.793 59.6389 209.642 59.2355C209.289 58.3276 207.927 58.2267 207.927 59.1346Z" fill="#DE4848"/>
<path d="M108.872 64.128C108.216 65.5906 106.955 68.3142 106.098 70.1803C104.736 73.3074 104.685 73.61 105.492 73.61C106.047 73.61 106.703 73.0048 107.056 72.0969C107.661 70.6342 107.812 70.5838 110.839 70.5838C113.865 70.5838 114.016 70.6342 114.621 72.0969C114.974 73.0048 115.63 73.61 116.185 73.61C116.941 73.61 116.689 72.7526 114.369 67.6585C112.755 64.128 111.393 61.707 110.889 61.6062C110.334 61.4548 109.679 62.2618 108.872 64.128ZM111.04 68.9698C109.88 69.0707 108.872 69.0203 108.771 68.9194C108.619 68.7681 109.023 67.6081 109.679 66.2967L110.839 63.9262L111.948 66.3976L113.108 68.8185L111.04 68.9698Z" fill="#DE4848"/>
<path d="M119.159 62.1611C118.453 62.5141 117.898 63.1194 117.898 63.5229C117.898 64.3803 118.201 64.3298 120.471 63.4724C122.538 62.6654 124.959 63.5733 126.019 65.5907L126.775 67.0534H123.698C121.328 67.0534 120.672 67.2047 120.672 67.8099C120.672 68.4152 121.328 68.5665 123.446 68.5665C126.573 68.5665 126.977 69.2222 125.111 70.937C123.396 72.5005 121.883 72.8031 120.067 71.8953C119.109 71.3909 118.302 71.2396 117.999 71.5422C117.243 72.2988 118.05 73.0553 120.218 73.6101C125.413 75.0223 129.448 70.5335 127.733 65.2881C126.674 62.0602 122.387 60.4967 119.159 62.1611Z" fill="#DE4848"/>
<path d="M130.762 67.5072C130.762 72.6013 130.863 73.61 131.518 73.61C132.023 73.61 132.275 73.0552 132.275 71.8447C132.275 70.0794 132.275 70.0794 134.544 70.0794C137.318 70.0794 139.084 69.3229 139.79 67.7089C140.647 65.8932 140.445 64.7332 139.134 63.1697C138.075 61.9592 137.52 61.7575 134.343 61.6061L130.762 61.4044V67.5072ZM137.218 63.8253C138.63 64.8341 138.731 67.3054 137.369 68.062C136.814 68.3142 135.452 68.5664 134.343 68.5664H132.275V65.7924V63.0184H134.191C135.251 63.0184 136.612 63.3714 137.218 63.8253Z" fill="#DE4848"/>
<path d="M144.531 62.4631C142.513 63.724 141.857 64.9345 141.857 67.5572C141.857 70.6338 142.967 72.3486 145.59 73.3573C147.557 74.1139 148.112 74.1643 150.028 73.5591C156.585 71.4408 155.475 62.2614 148.565 61.6561C146.75 61.5048 145.741 61.7066 144.531 62.4631ZM150.129 63.5727C151.692 64.3292 153.155 67.2041 152.651 68.7172C151.793 71.4912 149.221 72.9539 146.598 72.0964C143.118 70.9364 142.261 67.1032 144.833 64.4806C146.397 62.917 148.061 62.6649 150.129 63.5727Z" fill="#DE4848"/>
<path d="M157.141 62.0106C156.485 62.2628 155.981 62.868 155.981 63.3219C155.981 63.9272 156.233 64.028 156.888 63.7759C159.713 62.5654 162.537 63.2211 162.537 65.0872C162.537 66.1464 160.822 67.0542 158.704 67.0542C158.048 67.0542 157.494 67.256 157.494 67.5586C157.494 67.8108 158.149 68.0629 158.956 68.0629C159.763 68.0629 161.075 68.3151 161.781 68.5673C163.546 69.223 163.344 71.0891 161.327 71.997C160.116 72.6022 159.612 72.6022 157.847 71.8961C155.628 71.0387 155.174 71.1396 155.628 72.2996C155.981 73.2579 159.713 74.2666 161.175 73.8127C163.596 73.1066 164.555 72.1483 164.555 70.383C164.555 69.4752 164.202 68.416 163.798 68.0629C163.243 67.609 163.143 67.256 163.546 66.8525C163.798 66.6003 164.05 65.5916 164.05 64.6837C164.05 63.3724 163.748 62.868 162.537 62.2628C160.923 61.4054 158.855 61.3045 157.141 62.0106Z" fill="#DE4848"/>
<path d="M169.244 62.4631C167.227 63.724 166.571 64.9345 166.571 67.5572C166.571 70.6338 167.681 72.3486 170.304 73.3573C172.271 74.1139 172.825 74.1643 174.742 73.5591C181.299 71.4408 180.189 62.2614 173.279 61.6561C171.464 61.5048 170.455 61.7066 169.244 62.4631ZM174.843 63.5727C176.406 64.3292 177.869 67.2041 177.365 68.7172C176.507 71.4912 173.935 72.9539 171.312 72.0964C167.832 70.9364 166.975 67.1032 169.547 64.4806C171.111 62.917 172.775 62.6649 174.843 63.5727Z" fill="#DE4848"/>
<path d="M182.559 65.8934C182.257 71.0379 181.954 72.0971 180.643 72.0971C179.634 72.0971 179.331 73.3076 180.189 73.8624C181.096 74.4172 182.559 73.6102 183.164 72.2484C183.467 71.5423 183.921 69.1718 184.072 67.003L184.375 63.0186H186.796H189.267V68.3144C189.267 73.2571 189.318 73.6102 190.276 73.6102C191.234 73.6102 191.285 73.2571 191.285 67.5578V61.5055H187.048H182.862L182.559 65.8934Z" fill="#DE4848"/>
<path d="M194.816 67.5576V73.61H199.103C202.584 73.61 203.391 73.4587 203.391 72.8534C203.391 72.2482 202.684 72.0969 199.86 72.0969H196.329V70.3316V68.5664H199.356C201.726 68.5664 202.382 68.415 202.382 67.8098C202.382 67.2046 201.726 67.0533 199.356 67.0533H196.329V65.0358V63.0184H199.608C202.18 63.0184 202.886 62.8671 202.886 62.2618C202.886 61.6566 202.079 61.5053 198.851 61.5053H194.816V67.5576Z" fill="#DE4848"/>
<path d="M205.912 67.5576C205.912 72.5004 206.063 73.61 206.618 73.61C207.022 73.61 208.989 71.5421 210.905 69.0203L214.486 64.3801V69.0203C214.486 72.7526 214.638 73.61 215.243 73.61C215.898 73.61 215.999 72.6013 215.999 67.5576C215.999 62.6149 215.848 61.5053 215.293 61.5053C214.89 61.5053 212.923 63.5732 211.006 66.095L207.425 70.7351V66.095C207.425 62.3627 207.274 61.5053 206.669 61.5053C206.063 61.5053 205.912 62.514 205.912 67.5576Z" fill="#DE4848"/>
</svg>
