<svg width="38" height="19" viewBox="0 0 38 19" fill="none" xmlns="http://www.w3.org/2000/svg">
<g clip-path="url(#clip0_453_52)">
<path fill-rule="evenodd" clip-rule="evenodd" d="M0.447206 14.9239C0.45421 14.861 0.468155 14.7981 0.482162 14.7422L0.52406 14.5116C0.531063 14.4766 0.531063 14.4347 0.545039 14.3928C0.552012 14.3578 0.558984 14.3299 0.565988 14.302C0.572992 14.2391 0.586937 14.1762 0.59394 14.1063C0.600944 14.0434 0.621893 13.9806 0.628896 13.9317C0.628896 13.8897 0.691805 13.5333 0.70575 13.5054C0.70575 13.4495 0.789638 12.9254 0.803583 12.8974C0.810586 12.7996 0.84548 12.6878 0.852484 12.59C0.859487 12.4782 0.901416 12.3314 0.915392 12.2196C0.922396 12.1218 0.950348 11.996 0.964324 11.8982C0.971328 11.8423 0.978269 11.8004 0.992277 11.7375C0.99928 11.6956 1.01326 11.6536 1.01326 11.5977C1.0342 11.5278 1.04121 11.3951 1.06216 11.3392C1.06916 11.2343 1.09711 11.1295 1.11109 11.0247C1.11806 10.9828 1.12503 10.9548 1.13204 10.9059C1.13904 10.871 1.13204 10.843 1.15302 10.829C1.15302 10.7382 1.18794 10.6473 1.18794 10.5705C1.20892 10.4517 1.23687 10.3259 1.25085 10.2071C1.26483 10.1233 1.2788 10.0464 1.29278 9.96255C1.29975 9.93459 1.30672 9.87172 1.31373 9.84376C1.32073 9.80187 1.3277 9.78786 1.3277 9.74596C1.33468 9.68305 1.34865 9.62018 1.36263 9.55727C1.36963 9.50834 1.39058 9.43148 1.39058 9.38959C1.40456 9.3197 1.41856 9.24282 1.42554 9.17991C1.43254 9.04015 1.48845 8.90042 1.48845 8.75369C1.50239 8.71873 1.5234 8.59995 1.5234 8.56499C1.53735 8.49511 1.55135 8.41826 1.55836 8.35535L1.62127 7.97102C1.62824 7.94307 1.62824 7.93606 1.62824 7.90811C1.62824 7.89414 1.62824 7.89414 1.63524 7.88016L1.64225 7.86618C1.64225 7.76138 1.67717 7.63559 1.69115 7.53776C1.69115 7.49586 1.7261 7.29319 1.74008 7.27221C1.74008 7.18138 1.76803 7.14646 1.76803 7.06257C1.77503 7.02761 1.80299 6.90186 1.80299 6.85993C1.80299 6.81103 1.81693 6.79008 1.82394 6.74115L1.87984 6.44765C1.87984 6.35682 1.89382 6.31486 1.90782 6.231C1.9148 6.20305 1.93578 6.07026 1.94275 6.03537C1.94975 5.97246 1.96373 5.93053 1.9707 5.86068C1.9777 5.81175 2.03361 5.42042 2.05459 5.39947C2.05459 5.33656 2.06156 5.32262 2.07554 5.26671C2.08254 5.21778 2.11049 4.97321 2.13147 4.95223C2.13147 4.87538 2.14542 4.81947 2.15943 4.74259C2.17337 4.67271 2.17337 4.62381 2.19435 4.5679L2.27123 4.12767C2.27123 4.07173 2.33414 3.69441 2.34809 3.67346C2.34809 3.61055 2.40399 3.27515 2.42494 3.23323C2.42494 3.18429 2.4599 2.96768 2.47387 2.9397C2.47387 2.87682 2.49482 2.76504 2.50883 2.70213C2.50883 2.6602 2.59966 2.14312 2.60663 2.11513C2.60663 2.01733 2.64159 1.89852 2.65556 1.80068C2.65556 1.74478 2.66254 1.75876 2.66951 1.7168H17.8681L17.7982 2.17798C17.7842 2.24786 17.8052 2.20593 17.7702 2.23388L17.7772 2.26884C17.7563 2.37365 17.7004 2.83486 17.6654 2.88376C17.6724 2.94667 17.6095 3.36592 17.5815 3.40785C17.5886 3.4777 17.5256 3.82714 17.5047 3.91096L17.4628 4.14856L17.33 4.87532C17.337 4.92422 17.2741 5.30855 17.2532 5.3435C17.2601 5.44831 17.2182 5.60905 17.1972 5.72086L17.1343 6.09118C17.1273 6.10516 17.1273 6.10516 17.1273 6.11916L17.1203 6.14011C17.1273 6.19602 17.1134 6.32881 17.0784 6.3707C17.0854 6.44756 17.0505 6.59432 17.0365 6.67118C17.0226 6.75503 16.9667 7.16031 16.9387 7.19524C16.9457 7.25814 16.8968 7.59354 16.8618 7.6355C16.8688 7.67042 16.8339 7.95692 16.7989 7.99885C16.8129 8.08968 16.7291 8.43211 16.7151 8.55786C16.6941 8.63475 16.6871 8.71861 16.6732 8.79546L16.6242 9.04003C16.6312 9.07498 16.5893 9.43136 16.5474 9.48723C16.5613 9.54317 16.5404 9.67593 16.5054 9.71786C16.5124 9.78073 16.4915 9.85061 16.4845 9.92049L16.4076 10.3048C16.4146 10.3537 16.3937 10.5145 16.3657 10.5494C16.3727 10.6192 16.3378 10.8638 16.3028 10.9127C16.3098 10.9826 16.2889 11.0595 16.2749 11.1294C16.2678 11.1783 16.2539 11.3041 16.226 11.339C16.2329 11.381 16.226 11.4159 16.2189 11.4578C16.2189 11.4788 16.2119 11.4997 16.205 11.5207C16.198 11.5626 16.205 11.5417 16.184 11.5696C16.191 11.6186 16.184 11.6465 16.177 11.6884C16.177 11.7024 16.17 11.7304 16.17 11.7444C16.163 11.7863 16.17 11.7653 16.1491 11.7933L16.1072 12.1217C16.0792 12.2056 16.1351 12.0518 16.1002 12.1426C16.1002 12.1426 16.0932 12.1566 16.0932 12.1496C16.0932 12.1496 16.0932 12.1566 16.0862 12.1566C16.0932 12.1985 16.0862 12.2335 16.0792 12.2754L16.0512 12.3802C16.0652 12.4362 16.0163 12.7296 15.9883 12.7716C15.9953 12.8414 15.9464 13.1699 15.9115 13.2118C15.9185 13.2817 15.8835 13.5402 15.8486 13.5822C15.8556 13.6381 15.8416 13.7638 15.8136 13.8058C15.8206 13.8687 15.7997 13.9455 15.7857 14.0154L15.7367 14.3229C15.7298 14.3718 15.7018 14.5675 15.6808 14.6094C15.6948 14.6793 15.6669 14.7701 15.6529 14.847C15.6389 14.9169 15.6389 15.0147 15.604 15.0636C15.6109 15.1265 15.59 15.1964 15.583 15.2593C15.576 15.3152 15.569 15.3991 15.5411 15.434C15.555 15.5178 15.5061 15.6925 15.4922 15.7834C15.4782 15.8742 15.4782 16.0419 15.4292 16.1048C15.4363 16.1747 15.4013 16.4332 15.3663 16.4751C15.3733 16.538 15.3174 16.8874 15.2895 16.9223C15.2965 17.0062 15.2476 17.2368 15.2336 17.3346C15.2196 17.4395 15.2406 17.4534 15.1357 17.4604H1.99853V17.4534C1.57924 17.4534 1.15999 17.4534 0.747709 17.4604H0C0.00697259 17.4045 0.0209487 17.3416 0.0349559 17.2787L0.0908605 16.9153C0.0978331 16.8874 0.111809 16.7616 0.125816 16.7476C0.125816 16.7057 0.174718 16.3843 0.188725 16.3633C0.188725 16.3144 0.20267 16.2445 0.209673 16.2026C0.363411 15.3081 0.244629 16.0838 0.426319 14.9028L0.447268 14.9238L0.447206 14.9239ZM3.63365 16.1398H5.99556C6.72929 12.527 7.70759 6.76904 8.35747 2.98863L6.01657 2.9886C6.04452 3.82013 3.74552 15.5178 3.64068 16.1468L3.63368 16.1398H3.63365ZM9.54535 12.3174C9.5244 12.3663 9.51739 12.4572 9.51042 12.52C9.50342 12.5829 9.47547 12.6598 9.47547 12.7297C9.47547 12.7716 9.45449 12.8275 9.44751 12.8695C9.44051 12.9184 9.42653 12.9813 9.41956 13.0371C9.40559 13.0581 9.37063 13.2747 9.37063 13.3237C9.34968 13.3516 9.29378 13.708 9.29378 13.7709L9.21692 14.1622C9.20295 14.267 9.16799 14.3509 9.18197 14.4836C9.20292 14.6933 9.38461 14.826 9.60819 14.7911C9.77591 14.7631 9.76193 14.7492 9.87374 14.6863C9.91567 14.6164 10.0834 14.4766 10.0694 14.3649C10.0974 14.3229 10.1463 14.0015 10.1533 13.9526C10.1742 13.8617 10.2301 13.5822 10.2231 13.5123L10.2301 13.4914C10.2301 13.4844 10.2861 13.3237 10.272 13.2258L10.293 13.1559C10.3 13.135 10.3 13.107 10.307 13.0791C10.3139 13.0301 10.3349 12.9743 10.3209 12.9253C10.3279 12.9114 10.3279 12.9253 10.3349 12.8974L10.3488 12.8345C10.3558 12.7855 10.3558 12.7855 10.3558 12.7436C10.3908 12.7017 10.4047 12.5131 10.4187 12.4432C10.4327 12.3523 10.4816 12.1567 10.4746 12.0798L10.5236 11.8702C10.5375 11.7933 10.5585 11.7164 10.5515 11.6466C10.5725 11.6186 10.5725 11.5767 10.5655 11.5348C10.6284 11.4369 10.5305 11.0596 10.4956 10.9548C10.4606 10.857 10.279 10.5634 10.2231 10.5355C10.2091 10.5006 10.0554 10.2909 10.0204 10.2699C10.0065 10.228 10.0204 10.263 9.99249 10.228L9.79682 9.98346L9.74792 9.90661C9.68502 9.82973 9.39155 9.4454 9.36356 9.43839C9.34962 9.38949 9.23081 9.2497 9.18891 9.2008C9.15395 9.1589 9.03517 8.99116 9.00719 8.97721C8.99324 8.94926 8.8255 8.71166 8.79754 8.69769C8.76259 8.61383 8.69974 8.53695 8.65081 8.45312C8.62986 8.41817 8.60188 8.36926 8.58093 8.32033C8.56698 8.28541 8.546 8.21553 8.52502 8.18757C8.49707 8.02683 8.48313 7.94998 8.49007 7.77529L8.55298 7.32809L8.65781 6.74109C8.67876 6.64329 8.73467 6.39171 8.72072 6.30786C8.75565 6.25893 8.7836 6.03534 8.7836 5.96543C8.81158 5.93047 8.86749 5.57409 8.86048 5.52519C8.90938 5.44831 8.93033 5.11988 8.96529 5.0011C8.97923 4.9033 9.03517 4.68665 9.0282 4.60283C9.04214 4.58888 9.0352 4.60283 9.04214 4.57488L9.0701 4.45609C9.08407 4.40716 9.10505 4.35126 9.09808 4.30236C9.11903 4.2744 9.11202 4.28838 9.12603 4.24642C9.133 4.22547 9.13998 4.2115 9.14698 4.19052C9.16092 4.14862 9.17493 4.12067 9.17493 4.07173C9.20989 4.03678 9.25182 3.918 9.27277 3.86209L9.38457 3.65245C9.41953 3.63147 9.45445 3.57556 9.48241 3.54064C9.51736 3.49171 9.54532 3.47076 9.58721 3.4358C9.62217 3.40785 9.8178 3.27509 9.82481 3.26112C9.88772 3.24017 9.95757 3.19127 10.0274 3.16331C10.0973 3.13533 10.1602 3.10738 10.2371 3.08643C10.3978 3.03753 10.5376 3.01658 10.7122 3.00257C11.2084 2.98863 11.7185 3.00257 12.2216 3.00257C12.7038 3.00257 13.158 3.04447 13.4166 3.32399C13.4725 3.3799 13.5912 3.54064 13.6262 3.63847C13.6542 3.72233 13.6891 3.78521 13.7101 3.87607C13.731 3.97387 13.738 4.06473 13.738 4.18351C13.738 4.22544 13.731 4.30232 13.7241 4.3582C13.7171 4.4141 13.7031 4.48398 13.7031 4.54689C13.6961 4.6098 13.6752 4.68665 13.6682 4.74953C13.6612 4.81941 13.6472 4.91725 13.6262 4.97315C13.6262 5.02205 13.6053 5.09894 13.5983 5.15484C13.5843 5.22469 13.5703 5.2946 13.5633 5.35748C13.5563 5.37843 13.5284 5.53917 13.5284 5.56712C13.5214 5.61605 13.5074 5.67193 13.4934 5.7348C13.4795 5.80468 13.4655 5.86759 13.4655 5.93744C13.4445 6.00035 13.4375 6.08421 13.4236 6.16106C13.4096 6.25189 13.3956 6.3218 13.3817 6.40563C13.3817 6.45456 13.3537 6.57331 13.3467 6.61527C13.3397 6.6572 13.3397 6.67118 13.3328 6.72011C13.3258 6.75503 13.3118 6.79696 13.3118 6.84586C13.3048 6.89479 13.2908 6.95767 13.2768 7.01358C13.2629 7.07648 13.2489 7.14633 13.2489 7.20224C13.2419 7.24417 13.2279 7.30007 13.214 7.35598L11.3482 7.36298C11.3482 7.23022 11.432 6.99263 11.425 6.86681C11.46 6.82491 11.4949 6.55934 11.4879 6.49649C11.5019 6.47551 11.4949 6.49649 11.5019 6.46153L11.5578 6.09118C11.5997 6.04225 11.6347 5.64397 11.6626 5.55311C11.6766 5.45528 11.7185 5.30855 11.7116 5.21769C11.7395 5.17579 11.7395 5.07095 11.7605 5.02205L11.7675 4.95217L11.7884 4.86134C11.8443 4.58882 11.7395 4.35123 11.453 4.35123C11.2224 4.35123 10.9848 4.49099 10.9149 4.68665C10.901 4.72161 10.901 4.74256 10.887 4.77051C10.873 4.84039 10.852 4.93822 10.852 5.00811C10.8381 5.07101 10.8311 5.11291 10.8171 5.18279C10.8031 5.25267 10.7891 5.30858 10.7891 5.38543L10.7612 5.49024L10.7402 5.61602C10.7263 5.70685 10.7053 5.79071 10.6983 5.8746C10.6774 5.88854 10.6844 5.9305 10.6774 5.96543C10.6704 6.01433 10.6634 6.02833 10.6564 6.07023C10.6494 6.13314 10.6214 6.22397 10.6214 6.28688C10.6075 6.34278 10.6005 6.39168 10.5865 6.46156C10.5725 6.53141 10.5585 6.58735 10.5585 6.6642C10.5376 6.69216 10.5096 6.89479 10.5026 6.96467C10.4956 7.01358 10.4817 7.20924 10.4956 7.25817C10.5096 7.30007 10.4817 7.27212 10.5166 7.29313C10.4816 7.39093 10.6074 7.63553 10.6633 7.73336C10.6983 7.78927 10.6563 7.75431 10.7122 7.7823C10.7052 7.81722 10.7052 7.78927 10.7122 7.81722C10.7122 7.8312 10.7262 7.84517 10.7332 7.85915L11.0686 8.31336C11.0966 8.33431 11.0476 8.31336 11.0966 8.33431C11.0966 8.37621 11.2643 8.5719 11.2992 8.59986L11.5508 8.89335C11.5508 8.90036 11.5368 8.90036 11.5717 8.94926L11.8862 9.34059L12.0609 9.55724C12.1098 9.62015 12.0889 9.60617 12.1308 9.62712C12.1378 9.66902 12.2356 9.78783 12.2635 9.83676C12.3194 9.92062 12.3683 10.0394 12.4103 10.0603C12.3963 10.1023 12.4033 10.0743 12.4242 10.1233C12.4382 10.1442 12.4382 10.1512 12.4522 10.1862L12.543 10.4447C12.571 10.5495 12.55 10.5565 12.5849 10.5845C12.55 10.6684 12.571 10.7941 12.571 10.8849C12.564 10.9409 12.557 10.9548 12.557 11.0247C12.5431 11.0457 12.4941 11.3881 12.4941 11.444C12.4732 11.465 12.4941 11.437 12.4802 11.472C12.4802 11.4789 12.4732 11.5209 12.4732 11.5209C12.4662 11.5698 12.4592 11.5977 12.4592 11.6397C12.4453 11.6676 12.3963 11.9541 12.3963 11.996C12.3824 12.052 12.3683 12.1358 12.3613 12.2057C12.3544 12.2826 12.3264 12.3524 12.3264 12.4433C12.3124 12.4572 12.3124 12.4922 12.3054 12.5202C12.2984 12.562 12.2984 12.5831 12.2915 12.618C12.2775 12.6878 12.2705 12.7647 12.2565 12.8276C12.2565 12.8975 12.2216 12.9953 12.2216 13.0792C12.2076 13.1001 12.1866 13.2399 12.1866 13.2818C12.1727 13.3796 12.1447 13.4775 12.1377 13.5823C12.1237 13.6172 12.0888 13.8268 12.0888 13.8828C12.0678 13.8967 12.0678 13.9526 12.0678 13.9806C12.0608 14.0295 12.0539 14.0504 12.0469 14.0994C12.0329 14.1832 12.0119 14.2741 12.005 14.3579C11.991 14.3929 11.977 14.4697 11.97 14.5116C11.9561 14.5606 11.9351 14.6374 11.9281 14.6933L11.8093 15.0288C11.7464 15.1825 11.6695 15.2733 11.6416 15.3432C11.6277 15.3502 11.5438 15.469 11.5228 15.497C11.4949 15.5319 11.4879 15.5389 11.4599 15.5738L11.3831 15.6577C11.3272 15.7345 11.1035 15.8953 10.9987 15.9372C10.9428 15.9582 10.8939 15.9721 10.838 16.0071C10.7751 16.0141 10.5305 16.0979 10.3069 16.1049L9.68502 16.1188C9.5662 16.1188 9.48935 16.1328 9.38454 16.1328L8.57396 16.1329C8.4971 16.1329 8.48313 16.1189 8.41321 16.1189C8.37829 16.1189 8.28046 16.098 8.23856 16.091C8.21058 16.084 8.18963 16.084 8.15467 16.077C8.11972 16.07 8.10577 16.056 8.06384 16.056C7.81927 16.0001 7.74939 15.9163 7.62361 15.8254C7.60263 15.8115 7.61661 15.8185 7.60263 15.8115C7.58168 15.7765 7.60263 15.8045 7.57468 15.7696C7.56767 15.7556 7.56073 15.7556 7.55373 15.7416L7.31613 15.2944C7.30913 15.2315 7.28818 15.1756 7.28118 15.1127C7.27417 15.0429 7.28818 14.98 7.27417 14.9171C7.29515 14.8752 7.32311 14.5537 7.33011 14.4768C7.34406 14.365 7.39996 14.1344 7.39302 14.0436C7.42097 14.0017 7.44192 13.8549 7.43492 13.806L7.44192 13.785C7.44192 13.785 7.50483 13.5544 7.49082 13.4636C7.51877 13.4286 7.58865 13.0164 7.58165 12.9535L7.6096 12.8487C7.61661 12.7997 7.63058 12.7718 7.61661 12.7299L7.63055 12.688C7.63055 12.681 7.63755 12.653 7.63755 12.6461C7.64456 12.6181 7.64456 12.5902 7.6515 12.5622C7.6585 12.5063 7.67948 12.4434 7.67248 12.3875C7.70744 12.3386 7.74233 12.108 7.73539 12.0381C7.76334 11.9962 7.81924 11.6049 7.83319 11.521C7.87512 11.4861 8.71369 11.5071 8.76259 11.5071H9.71297L9.64312 11.9193L9.61513 12.0801C9.60119 12.1569 9.57324 12.2338 9.57324 12.3176H9.54525L9.54535 12.3174Z" fill="#777986"/>
<path fill-rule="evenodd" clip-rule="evenodd" d="M23.4514 7.78906L23.5073 8.66956C23.5142 8.71849 23.5142 8.75342 23.5142 8.8233C23.5142 8.89318 23.5282 8.90015 23.5282 8.97003C23.5282 9.1657 23.5632 9.36834 23.5632 9.57098L23.5841 9.8575C23.5981 9.96231 23.5981 10.0601 23.5981 10.165C23.5981 10.2488 23.619 10.3676 23.626 10.4515L23.647 10.8847C23.647 10.9546 23.6609 10.9686 23.6609 11.0315L23.6959 11.6324C23.6959 11.7023 23.7098 11.7093 23.7098 11.7792C23.7098 11.9538 23.7308 12.0377 23.7308 12.2264L23.7588 12.5268L22.515 12.5268L22.7455 11.3389C22.7805 11.1362 22.8294 10.9476 22.8643 10.7449C22.8783 10.6471 22.8993 10.5562 22.9203 10.4514C22.9412 10.3466 22.9622 10.2557 22.9762 10.1509L23.2068 8.963C23.2487 8.76736 23.2766 8.56472 23.3255 8.36903L23.4094 7.92876C23.4164 7.90081 23.4164 7.89384 23.4234 7.85191L23.4443 7.77506L23.4513 7.789L23.4514 7.78906ZM30.1877 9.87145H28.9787C28.9298 9.87145 28.9508 9.82952 28.9508 9.77362L29.0905 7.55847C29.0905 7.48859 29.1045 7.48162 29.1045 7.41871L29.1464 6.67801C29.1534 6.62907 29.1534 6.58718 29.1534 6.53124C29.1534 6.40549 29.1883 6.09101 29.1883 5.94427C29.1883 5.87442 29.2023 5.86042 29.2023 5.79754L29.2163 5.49707C29.2232 5.41321 29.2372 5.28742 29.2372 5.19659H30.53C30.8864 5.19659 30.7815 5.46214 30.7815 5.74166L30.6208 8.2433C30.6208 8.29921 30.6278 8.34811 30.6208 8.40405C30.5859 8.71849 30.5859 9.1238 30.5509 9.43125C30.53 9.61994 30.6068 9.86451 30.1876 9.86451V9.87151L30.1877 9.87145ZM21.7323 16.3841C21.7603 16.2514 21.7882 16.1046 21.8162 15.9718C21.8441 15.8251 21.8721 15.6923 21.9001 15.5456C21.928 15.4058 21.956 15.2661 21.9839 15.1194C22.0119 14.9796 22.0398 14.8328 22.0748 14.7001L23.9195 14.7C23.9195 14.8188 23.9545 15.0075 23.9545 15.1263C23.9615 15.3359 23.9964 15.5525 24.0034 15.7622C24.0104 15.902 24.0384 16.0487 24.0384 16.1954C24.0384 16.2583 24.0314 16.3841 24.0873 16.3841H28.4966C28.5525 16.3841 28.5316 16.2863 28.5455 16.1465C28.5595 15.9718 28.5595 15.7832 28.5805 15.6085C28.5875 15.5666 28.5805 15.5176 28.5805 15.4757L28.6294 14.7979C28.6433 14.6721 28.6364 14.5114 28.6573 14.3856C28.6783 14.2528 28.6713 14.1131 28.6853 13.9733C28.6923 13.9314 28.6853 13.8894 28.6923 13.8405L28.7621 12.7574C28.7621 12.7015 28.7621 12.6666 28.7692 12.6107C28.7901 12.4569 28.8041 12.2124 28.8041 12.0586H29.1255C29.1744 12.0586 29.1674 12.1216 29.1814 12.1634L29.5378 13.6588C29.5797 13.8335 29.6286 14.0362 29.6706 14.2109C29.8104 14.7559 29.9431 15.294 30.0619 15.846L30.1597 16.2583C30.1737 16.3072 30.1667 16.3771 30.2156 16.3771H32.9898C32.9898 16.3142 32.9409 16.1745 32.9199 16.1046L32.6335 15.0354C32.5216 14.5812 32.3819 14.134 32.2701 13.6798C32.1583 13.2326 32.0185 12.7784 31.9137 12.3312C31.8927 12.2403 31.8578 12.1495 31.8368 12.0586C32.1792 12.0586 32.4378 11.9678 32.6264 11.8141C32.9409 11.5625 33.1366 11.1782 33.1296 10.7519L33.2833 8.30618C33.2973 8.22933 33.2903 8.13149 33.3043 8.06161L33.3322 7.56544C33.3322 7.50954 33.3392 7.4956 33.3462 7.45364C33.3532 7.40473 33.3462 7.36978 33.3532 7.32088C33.3742 7.2021 33.3671 7.07631 33.3742 6.9575L33.4091 6.46836C33.4161 6.34955 33.4161 6.20979 33.4301 6.09101L33.472 5.3503H34.3035C34.3035 5.58089 34.2685 5.80451 34.2685 6.0351L34.2196 6.7199C34.2057 6.83868 34.2126 6.95049 34.2057 7.06928L34.1567 7.75408C34.1567 7.87986 34.1498 7.99864 34.1358 8.10345L33.9681 10.8567C33.9541 10.9545 33.9541 11.1012 33.9471 11.1991C33.9471 11.262 33.9332 11.2829 33.9332 11.3598L33.7096 14.9935C33.7026 15.0983 33.6816 15.2241 33.6816 15.3289L33.6397 16.0207C33.6257 16.1256 33.6187 16.2513 33.6187 16.3701H36.358C36.4139 16.3701 36.3929 16.2933 36.3929 16.2304C36.3929 16.1185 36.4209 16.0068 36.4209 15.881L36.4768 15.0145C36.4908 14.9237 36.4978 14.7769 36.4978 14.6721C36.4978 14.6092 36.5117 14.5812 36.5117 14.4974C36.5117 14.4135 36.5257 14.3926 36.5257 14.3227C36.5257 14.2319 36.5327 14.0711 36.5467 13.9803C36.5676 13.8615 36.5537 13.7427 36.5676 13.6239C36.5746 13.5191 36.5886 13.4003 36.5886 13.2885L36.6165 12.9391C36.6165 12.8622 36.6235 12.8343 36.6305 12.7784L36.6584 12.2403C36.6724 12.0377 36.7004 11.7581 36.7074 11.5555L36.7423 10.8567C36.7493 10.7519 36.7703 10.6331 36.7703 10.5213C36.7703 10.4025 36.7912 10.2837 36.7982 10.1719C36.8052 9.92732 36.8262 9.71771 36.8332 9.47311L37.0777 5.67869C37.0848 5.61579 37.0848 5.56688 37.0848 5.497C37.0848 5.4341 37.0987 5.40617 37.0987 5.32232H38.9155C38.8666 5.11968 38.8316 4.91004 38.7827 4.69342L38.5941 3.75005C38.5731 3.63824 38.5522 3.5404 38.5312 3.42862C38.5102 3.33079 38.4893 3.21898 38.4683 3.12115C38.4473 3.00934 38.4123 2.9045 38.4123 2.79272H33.3811C33.3741 2.84166 33.3601 2.87661 33.3461 2.91851C33.3042 3.03729 33.2483 3.17008 33.2204 3.28886H33.1924C33.1785 3.23993 33.1295 3.20497 33.0946 3.17005C33.0177 3.0932 32.9269 3.0443 32.836 2.99536C32.6054 2.8556 32.2421 2.79272 31.9346 2.79272H26.6657C26.6657 2.98142 26.6378 3.12815 26.6378 3.30284C26.6378 3.35877 26.6308 3.37972 26.6308 3.41465C26.6238 3.46358 26.6308 3.50548 26.6238 3.54744C26.6168 3.61729 26.6098 3.72913 26.6028 3.79901C26.5958 3.84091 26.6028 3.88287 26.6028 3.92476L26.5609 4.56767C26.5399 4.7214 26.5329 5.14069 26.519 5.33632L26.498 5.71368C26.498 5.84644 26.4701 5.95825 26.4701 6.084L26.3932 7.23002C26.3862 7.43966 26.3513 7.65627 26.3582 7.86592C26.3582 8.07556 26.3303 8.29217 26.3233 8.50182L26.2255 10.0112C26.2255 10.3117 26.1766 10.6191 26.1766 10.9196H26.1626C26.1626 10.668 26.0718 10.1928 26.0508 9.91335L26.0299 9.74563C26.0229 9.67578 26.0229 9.64083 26.0159 9.57795L25.7783 7.57245C25.7154 7.13218 25.6875 6.671 25.6176 6.23774L25.5756 5.90234L25.2193 2.88359C25.2053 2.7578 25.1913 2.79973 24.9258 2.79973L22.2983 2.7997L21.8232 4.76327C21.4528 6.23771 21.1104 7.71912 20.74 9.20056C20.6981 9.3613 20.6562 9.52899 20.6212 9.68973L19.8456 12.8832L19.7827 13.1347L19.0629 16.0906C19.0559 16.1115 19 16.3351 19 16.3351C19.007 16.3701 19 16.3561 19.0419 16.3561H21.7323V16.3841L21.7323 16.3841Z" fill="#777986"/>
</g>
<defs>
<clipPath id="clip0_453_52">
<rect width="38" height="17.4255" fill="white" transform="translate(0 0.75)"/>
</clipPath>
</defs>
</svg>
