<svg width="61" height="49" viewBox="0 0 61 49" fill="none" xmlns="http://www.w3.org/2000/svg">
<path d="M54.4643 0.0511436C52.9528 0.263124 51.4841 1.37956 50.7426 2.86343C50.4574 3.41459 50.4004 3.75376 50.4004 4.87019C50.4004 6.07142 50.4432 6.29754 50.7997 6.99001C51.4984 8.34669 52.4965 9.18049 53.8939 9.59032C54.9206 9.88709 55.6763 9.87296 56.8171 9.51966C58.1147 9.12396 59.4123 7.9086 59.8828 6.63671C61.1947 3.08955 58.2573 -0.471745 54.4643 0.0511436Z" fill="white"/>
<path d="M12.2985 9.88699C10.4495 10.1515 9.25392 10.4716 8.11395 11.0145C3.84601 13.0606 1.27412 16.3038 0.245365 20.9528C-0.0465789 22.2751 -0.0882852 25.3791 0.175855 27.0076C1.00998 32.3109 3.1509 35.7489 6.30668 36.8346C7.44665 37.2243 10.0602 37.1965 11.3948 36.7789C12.368 36.4866 13.7026 35.6375 14.3004 34.9416C14.5506 34.6632 14.495 34.6771 13.9667 35.0251C13.4384 35.3731 13.216 35.4288 12.4097 35.4288C11.5756 35.4288 11.4226 35.387 10.9361 34.9973C10.6441 34.7606 10.2827 34.3291 10.1298 34.0229C9.86561 33.494 9.85171 33.2017 9.85171 22.9015C9.85171 11.1119 9.7822 11.9331 10.811 11.0284C12.0204 9.95659 14.0362 10.3742 14.787 11.8496C15.065 12.3785 15.065 12.6152 15.0372 23.1103C15.0094 28.9981 15.0233 33.842 15.065 33.8698C15.1067 33.8837 15.0928 36.7093 15.0233 40.1335L14.8982 46.3693L15.2735 47.1348C15.6767 47.97 16.4413 48.5824 17.3588 48.8469C17.7064 48.9443 19.3607 49 21.6963 49H25.4916L25.5194 41.1078L25.5611 33.2295L25.9642 33.842C27.0486 35.4566 28.8698 36.7232 30.5936 37.0434C31.6085 37.2383 33.7911 37.113 34.806 36.8068C35.7374 36.5284 36.794 35.8603 37.5169 35.0669C37.9895 34.5519 38.0034 34.524 37.6281 34.8302C36.3352 35.8742 34.6113 35.6375 33.6799 34.2735L33.3462 33.7724L33.3045 23.152C33.2767 12.9631 33.2767 12.4899 33.5409 11.9192C33.9301 11.0145 34.653 10.5412 35.6957 10.4716C36.8218 10.402 37.642 10.8196 38.1008 11.6965L38.4205 12.3089L38.3927 23.1242C38.3649 29.0677 38.3927 33.9116 38.4344 33.8837C38.49 33.8559 38.5595 34.1204 38.6151 34.4544C38.7125 35.2617 38.9905 35.7767 39.63 36.4031C40.4641 37.2243 41.0202 37.3079 45.2603 37.3079H49L48.9444 26.8267C48.8749 15.4547 48.861 15.0928 48.0964 13.7148C47.1371 11.947 45.6218 10.8753 43.036 10.1236C42.0629 9.84524 41.6597 9.8174 38.8376 9.8174C35.5567 9.8174 34.1387 9.99835 32.4704 10.5969C30.0793 11.4599 27.7437 13.1998 26.1728 15.2737C25.853 15.7191 25.5333 16.1367 25.4777 16.1924C25.4221 16.262 25.3108 15.9001 25.2274 15.3851C24.9911 14.0349 24.5879 13.2833 23.5592 12.2533C22.5165 11.2232 21.4461 10.6247 19.7222 10.1515C18.7908 9.90091 18.1652 9.84524 15.8991 9.80348C14.4116 9.78956 12.7851 9.8174 12.2985 9.88699Z" fill="white"/>
</svg>
