<svg width="221" height="101" viewBox="0 0 221 101" fill="none" xmlns="http://www.w3.org/2000/svg">
<path d="M111.053 0.456316C108.042 0.878675 105.115 3.1031 103.638 6.05962C103.07 7.15775 102.956 7.83353 102.956 10.058C102.956 12.4513 103.041 12.9018 103.752 14.2816C105.144 16.9847 107.132 18.6459 109.917 19.4625C111.962 20.0538 113.468 20.0256 115.741 19.3217C118.326 18.5333 120.912 16.1118 121.849 13.5776C124.463 6.51014 118.61 -0.585503 111.053 0.456316Z" fill="white"/>
<path d="M25.1742 20.0592C21.3897 20.6041 18.9426 21.2637 16.6094 22.3822C7.87386 26.5979 2.60979 33.28 0.50416 42.8587C-0.0933833 45.5831 -0.178747 51.9785 0.361888 55.3338C2.06915 66.2604 6.45114 73.344 12.9103 75.5809C15.2436 76.3839 20.593 76.3266 23.3246 75.4662C25.3164 74.864 28.048 73.1146 29.2716 71.6806C29.7838 71.1071 29.67 71.1357 28.5887 71.8527C27.5074 72.5697 27.0521 72.6844 25.4018 72.6844C23.6945 72.6844 23.3815 72.5983 22.3856 71.7953C21.7881 71.3078 21.0483 70.4188 20.7353 69.7878C20.1946 68.6981 20.1662 68.0958 20.1662 46.8737C20.1662 22.5829 20.0239 24.2749 22.1295 22.4108C24.6051 20.2026 28.731 21.063 30.2675 24.1029C30.8366 25.1927 30.8366 25.6802 30.7797 47.3038C30.7228 59.4349 30.7512 69.415 30.8366 69.4724C30.9219 69.5011 30.8935 75.3228 30.7512 82.3777L30.4951 95.2257L31.2634 96.8031C32.0886 98.5238 33.6536 99.7856 35.5316 100.331C36.2429 100.531 39.629 100.646 44.4093 100.646H52.1774L52.2343 84.3852L52.3197 68.1532L53.1449 69.415C55.3643 72.7417 59.0918 75.3515 62.6202 76.0111C64.6973 76.4126 69.1647 76.1545 71.2419 75.5236C73.1483 74.95 75.3109 73.5734 76.7905 71.9387C77.7579 70.8776 77.7864 70.8203 77.0181 71.4512C74.3719 73.6021 70.8435 73.1146 68.9371 70.3041L68.2542 69.2716L68.1688 47.3899C68.1119 26.3972 68.1119 25.4221 68.6525 24.2463C69.4492 22.3822 70.9289 21.4071 73.063 21.2637C75.3678 21.1203 77.0466 21.9807 77.9856 23.7874L78.64 25.0493L78.5831 47.3325C78.5262 59.5783 78.5831 69.5584 78.6685 69.5011C78.7823 69.4437 78.9246 69.9886 79.0384 70.6769C79.2376 72.3402 79.8067 73.4014 81.1156 74.6919C82.8228 76.3839 83.961 76.556 92.6396 76.556H100.294L100.18 54.961C100.038 31.5306 100.009 30.785 98.4443 27.9458C96.4809 24.3036 93.3794 22.0954 88.0869 20.5467C86.0951 19.9732 85.2699 19.9158 79.4937 19.9158C72.7784 19.9158 69.8761 20.2886 66.4615 21.5218C61.5674 23.2999 56.787 26.8847 53.5717 31.1578C52.9172 32.0755 52.2628 32.9359 52.149 33.0506C52.0351 33.194 51.8075 32.4483 51.6368 31.3872C51.153 28.6054 50.3279 27.0568 48.2222 24.9346C46.0882 22.8123 43.8972 21.5792 40.3688 20.6041C38.4624 20.0879 37.1819 19.9732 32.5438 19.8871C29.4992 19.8585 26.1701 19.9158 25.1742 20.0592Z" fill="white"/>
<path d="M114.182 41.8163C114.182 42.2291 113.408 42.6419 112.221 42.8484C109.434 43.2612 107.731 45.2221 107.731 48.0603C107.731 50.8469 108.97 52.2918 111.963 53.0658C113.201 53.3239 114.182 53.7883 114.182 54.0463C114.182 54.3043 114.543 54.5107 114.956 54.5107C115.369 54.5107 115.73 54.3043 115.73 54.0979C115.73 53.8399 116.659 53.3755 117.794 53.0142C120.632 52.1886 121.922 50.6405 121.922 48.1635C121.922 47.0798 121.664 45.7381 121.406 45.1705C120.787 44.0352 118.259 42.6419 116.762 42.6419C116.194 42.6419 115.73 42.2807 115.73 41.8679C115.73 41.4551 115.369 41.0938 114.956 41.0938C114.543 41.0938 114.182 41.4035 114.182 41.8163ZM114.182 48.1119V52.0338L112.789 51.6726C110.982 51.2597 110.054 50.4857 109.486 48.9892C108.66 46.8218 110.621 44.3449 113.305 44.2416C114.079 44.19 114.182 44.7061 114.182 48.1119ZM119.033 45.2737C121.148 46.925 120.787 49.8664 118.259 51.1565C115.885 52.395 115.73 52.1886 115.73 48.0603C115.73 44.6029 115.833 44.19 116.71 44.19C117.226 44.19 118.259 44.6545 119.033 45.2737Z" fill="white"/>
<path d="M126.875 44.2922C126.204 45.7887 124.914 48.5753 124.037 50.4846C122.644 53.684 122.592 53.9937 123.418 53.9937C123.985 53.9937 124.656 53.3744 125.017 52.4455C125.637 50.949 125.791 50.8974 128.888 50.8974C131.984 50.8974 132.139 50.949 132.758 52.4455C133.119 53.3744 133.79 53.9937 134.358 53.9937C135.132 53.9937 134.874 53.1164 132.5 47.9044C130.849 44.2922 129.455 41.8152 128.939 41.712C128.372 41.5572 127.701 42.3829 126.875 44.2922ZM129.094 49.2461C127.907 49.3493 126.875 49.2977 126.772 49.1945C126.617 49.0397 127.03 47.8528 127.701 46.5111L128.888 44.0858L130.023 46.6144L131.21 49.0913L129.094 49.2461Z" fill="white"/>
<path d="M137.4 47.8012V53.9937H141.271C145.709 53.9937 147.205 53.0648 147.205 50.433C147.205 48.1109 145.141 46.7692 141.735 46.7692H138.948V44.963V43.1569H142.561C145.451 43.1569 146.173 43.0021 146.173 42.3829C146.173 41.7636 145.347 41.6088 141.787 41.6088H137.4V47.8012ZM144.831 49.1429C145.812 50.1234 145.863 50.433 144.986 51.6199C144.522 52.2391 143.386 52.652 141.632 52.8584L138.948 53.1164V50.691V48.3173H141.477C143.128 48.3173 144.315 48.6269 144.831 49.1429Z" fill="white"/>
<path d="M149.787 47.7496C149.787 52.9616 149.89 53.9937 150.561 53.9937C151.077 53.9937 151.335 53.426 151.335 52.1875C151.335 50.3814 151.335 50.3814 153.657 50.3814C156.496 50.3814 158.302 49.6074 159.024 47.956C159.901 46.0983 159.695 44.9114 158.353 43.3117C157.27 42.0732 156.702 41.8668 153.451 41.712L149.787 41.5056V47.7496ZM156.392 43.9826C157.837 45.0146 157.94 47.5432 156.547 48.3173C155.98 48.5753 154.586 48.8333 153.451 48.8333H151.335V45.9951V43.1569H153.296C154.38 43.1569 155.773 43.5181 156.392 43.9826Z" fill="white"/>
<path d="M162.171 47.8012C162.171 52.8584 162.326 53.9937 162.893 53.9937C163.306 53.9937 165.319 51.8779 167.28 49.2977L170.943 44.5502V49.2977C170.943 53.1164 171.098 53.9937 171.718 53.9937C172.388 53.9937 172.492 52.9616 172.492 47.8012C172.492 42.7441 172.337 41.6088 171.769 41.6088C171.356 41.6088 169.344 43.7246 167.383 46.3047L163.719 51.0523V46.3047C163.719 42.4861 163.564 41.6088 162.945 41.6088C162.326 41.6088 162.171 42.6409 162.171 47.8012Z" fill="white"/>
<path d="M176.104 47.8012C176.104 52.9616 176.258 53.9937 176.878 53.9937C177.445 53.9937 177.652 53.3744 177.652 51.4135C177.652 49.0913 177.755 48.8333 178.839 48.8333C179.664 48.8333 180.645 49.659 181.986 51.4135C183.638 53.5808 184.205 53.9937 185.65 53.9937C187.043 53.9937 187.456 53.7356 187.972 52.4455C188.592 50.949 188.746 50.8974 191.843 50.8974C194.939 50.8974 195.094 50.949 195.713 52.4455C196.074 53.3744 196.745 53.9937 197.313 53.9937C198.087 53.9937 197.829 53.1164 195.455 47.9044C193.855 44.3438 192.359 41.8152 191.894 41.712C191.069 41.5572 190.759 42.1765 186.785 51.0523L185.65 53.5292L183.741 50.949C181.832 48.4205 181.367 47.0788 182.193 46.5627C182.399 46.4595 183.328 45.2727 184.257 43.9826C185.702 41.97 185.805 41.6088 185.031 41.6088C184.515 41.6088 183.122 42.8473 181.935 44.447C180.541 46.2015 179.355 47.2852 178.684 47.2852C177.755 47.2852 177.652 46.924 177.652 44.447C177.652 42.2797 177.497 41.6088 176.878 41.6088C176.258 41.6088 176.104 42.6409 176.104 47.8012ZM192.049 49.2461C190.862 49.3493 189.83 49.2977 189.727 49.1945C189.572 49.0397 189.985 47.8528 190.656 46.5111L191.843 44.0858L192.978 46.6144L194.165 49.0913L192.049 49.2461Z" fill="white"/>
<path d="M212.741 60.857C212.741 62.8696 217.386 63.6436 218.418 61.7859C219.088 60.4442 219.088 60.1862 218.211 60.1862C217.798 60.1862 217.386 60.5474 217.179 60.9602C217.024 61.3731 216.405 61.7343 215.837 61.7343C215.27 61.7343 214.651 61.3731 214.496 60.9602C214.135 60.0314 212.741 59.9282 212.741 60.857Z" fill="white"/>
<path d="M111.394 65.966C110.723 67.4625 109.433 70.2491 108.555 72.1584C107.162 75.3579 107.111 75.6675 107.936 75.6675C108.504 75.6675 109.175 75.0482 109.536 74.1194C110.155 72.6229 110.31 72.5713 113.406 72.5713C116.502 72.5713 116.657 72.6229 117.276 74.1194C117.638 75.0482 118.309 75.6675 118.876 75.6675C119.65 75.6675 119.392 74.7902 117.018 69.5783C115.367 65.966 113.974 63.4891 113.458 63.3858C112.89 63.231 112.219 64.0567 111.394 65.966ZM113.613 70.92C112.426 71.0232 111.394 70.9716 111.29 70.8684C111.136 70.7135 111.548 69.5267 112.219 68.185L113.406 65.7596L114.541 68.2882L115.728 70.7651L113.613 70.92Z" fill="white"/>
<path d="M121.919 63.9534C121.197 64.3146 120.629 64.9338 120.629 65.3467C120.629 66.2239 120.939 66.1723 123.261 65.2951C125.376 64.4694 127.853 65.3983 128.937 67.4624L129.711 68.9589H126.563C124.138 68.9589 123.467 69.1137 123.467 69.733C123.467 70.3522 124.138 70.507 126.305 70.507C129.505 70.507 129.918 71.1779 128.008 72.9324C126.254 74.5321 124.706 74.8417 122.848 73.9129C121.867 73.3968 121.042 73.242 120.732 73.5516C119.958 74.3257 120.784 75.0997 123.003 75.6674C128.318 77.1123 132.446 72.5196 130.692 67.1528C129.608 63.8502 125.222 62.2505 121.919 63.9534Z" fill="white"/>
<path d="M133.79 69.4235C133.79 74.6354 133.893 75.6675 134.564 75.6675C135.08 75.6675 135.338 75.0998 135.338 73.8614C135.338 72.0552 135.338 72.0552 137.66 72.0552C140.498 72.0552 142.305 71.2812 143.027 69.6299C143.904 67.7721 143.698 66.5853 142.356 64.9856C141.273 63.7471 140.705 63.5407 137.454 63.3858L133.79 63.1794V69.4235ZM140.395 65.6564C141.84 66.6885 141.943 69.217 140.55 69.9911C139.982 70.2491 138.589 70.5071 137.454 70.5071H135.338V67.6689V64.8307H137.299C138.383 64.8307 139.776 65.192 140.395 65.6564Z" fill="white"/>
<path d="M147.878 64.2625C145.813 65.5526 145.143 66.7911 145.143 69.4745C145.143 72.6223 146.278 74.3768 148.961 75.4089C150.974 76.1829 151.541 76.2345 153.502 75.6153C160.211 73.448 159.076 64.0561 152.006 63.4369C150.148 63.2821 149.116 63.4885 147.878 64.2625ZM153.606 65.3978C155.205 66.1719 156.702 69.1133 156.186 70.6614C155.308 73.4996 152.677 74.9961 149.993 74.1188C146.433 72.9319 145.555 69.0101 148.187 66.3267C149.787 64.727 151.49 64.4689 153.606 65.3978Z" fill="white"/>
<path d="M160.779 63.7993C160.108 64.0573 159.592 64.6766 159.592 65.141C159.592 65.7603 159.85 65.8635 160.521 65.6054C163.411 64.367 166.3 65.0378 166.3 66.9471C166.3 68.0308 164.546 68.9597 162.379 68.9597C161.708 68.9597 161.14 69.1661 161.14 69.4757C161.14 69.7337 161.811 69.9917 162.637 69.9917C163.462 69.9917 164.804 70.2498 165.526 70.5078C167.333 71.1786 167.126 73.0879 165.062 74.0168C163.824 74.6361 163.307 74.6361 161.501 73.9136C159.231 73.0363 158.766 73.1396 159.231 74.3264C159.592 75.3069 163.411 76.339 164.907 75.8745C167.384 75.1521 168.365 74.1716 168.365 72.3655C168.365 71.4366 168.003 70.353 167.591 69.9917C167.023 69.5273 166.92 69.1661 167.333 68.7533C167.591 68.4952 167.849 67.4632 167.849 66.5343C167.849 65.1926 167.539 64.6766 166.3 64.0573C164.649 63.1801 162.533 63.0769 160.779 63.7993Z" fill="white"/>
<path d="M173.163 64.2625C171.099 65.5526 170.428 66.7911 170.428 69.4745C170.428 72.6223 171.563 74.3768 174.246 75.4089C176.259 76.1829 176.827 76.2345 178.788 75.6153C185.496 73.448 184.361 64.0561 177.291 63.4369C175.433 63.2821 174.401 63.4885 173.163 64.2625ZM178.891 65.3978C180.49 66.1719 181.987 69.1133 181.471 70.6614C180.594 73.4996 177.962 74.9961 175.278 74.1188C171.718 72.9319 170.841 69.0101 173.472 66.3267C175.072 64.727 176.775 64.4689 178.891 65.3978Z" fill="white"/>
<path d="M186.787 67.7724C186.477 73.036 186.167 74.1197 184.826 74.1197C183.794 74.1197 183.484 75.3582 184.361 75.9258C185.29 76.4934 186.787 75.6678 187.406 74.2745C187.716 73.552 188.18 71.1267 188.335 68.9077L188.644 64.831H191.121H193.65V70.2494C193.65 75.3065 193.702 75.6678 194.682 75.6678C195.663 75.6678 195.714 75.3065 195.714 69.4754V63.2829H191.379H187.096L186.787 67.7724Z" fill="white"/>
<path d="M199.328 69.4751V75.6675H203.714C207.275 75.6675 208.101 75.5127 208.101 74.8934C208.101 74.2742 207.378 74.1194 204.488 74.1194H200.876V72.3133V70.5071H203.972C206.398 70.5071 207.069 70.3523 207.069 69.7331C207.069 69.1138 206.398 68.959 203.972 68.959H200.876V66.8949V64.8307H204.23C206.862 64.8307 207.585 64.6759 207.585 64.0567C207.585 63.4375 206.759 63.2826 203.456 63.2826H199.328V69.4751Z" fill="white"/>
<path d="M210.681 69.4751C210.681 74.5322 210.835 75.6675 211.403 75.6675C211.816 75.6675 213.828 73.5517 215.789 70.9716L219.453 66.224V70.9716C219.453 74.7902 219.608 75.6675 220.227 75.6675C220.898 75.6675 221.001 74.6354 221.001 69.4751C221.001 64.4179 220.847 63.2826 220.279 63.2826C219.866 63.2826 217.854 65.3984 215.893 67.9786L212.229 72.7261V67.9786C212.229 64.1599 212.074 63.2826 211.455 63.2826C210.835 63.2826 210.681 64.3147 210.681 69.4751Z" fill="white"/>
</svg>
