<svg width="80" height="133" viewBox="0 0 80 133" fill="none" xmlns="http://www.w3.org/2000/svg">
<path fill-rule="evenodd" clip-rule="evenodd" d="M19.1859 78.7797C25.0296 85.7064 31.4463 92.1353 38.37 98C45.2936 92.1353 51.712 85.7064 57.5558 78.7797C66.3267 68.3774 76.7417 52.8857 76.7417 38.1233C76.7729 28.0119 72.7312 18.3074 65.5142 11.1734C54.5419 0.266312 38.0297 -2.99856 23.6859 2.90192C9.34206 8.80239 -0.00694061 22.7054 3.86614e-06 38.1233C3.86614e-06 52.8857 10.415 68.3774 19.1859 78.7797ZM24.9376 21.271C23.0591 21.533 21.8456 21.8502 20.6876 22.3881C16.3508 24.4152 13.7396 27.6287 12.6945 32.2349C12.5608 32.8241 12.4792 33.7706 12.4532 34.7804C12.4219 36.0157 12.4758 37.3462 12.6233 38.2337C13.4706 43.488 15.6459 46.8947 18.8508 47.9701C20.0088 48.3563 22.665 48.3287 24.0209 47.9149C25.0088 47.6257 26.3647 46.7844 26.9723 46.0948C27.2258 45.8189 27.1703 45.8327 26.6338 46.1775C26.2831 46.4025 26.0644 46.5038 25.7275 46.5473C25.5487 46.5706 25.3352 46.5775 25.0505 46.5775C24.2032 46.5775 24.0487 46.5361 23.5539 46.1499C23.3994 46.028 23.2258 45.8538 23.073 45.672C22.9324 45.5043 22.8091 45.3302 22.7345 45.1845C22.4671 44.6604 22.4532 44.3708 22.4532 34.1654C22.4532 24.5703 22.4046 23.4062 22.9671 22.7993C23.0904 22.6674 23.2414 22.5618 23.4272 22.4019C24.6564 21.3399 26.7032 21.7537 27.4654 23.2157C27.5869 23.4407 27.6564 23.6126 27.6946 24.5621C27.7432 25.8207 27.7362 28.4455 27.7206 34.3723C27.6928 40.2059 27.7067 45.0052 27.7484 45.0328C27.771 45.0401 27.7779 45.8047 27.7692 47.0158C27.7605 48.1274 27.7397 49.6152 27.7067 51.2388L27.58 57.4173L27.9602 58.1755C28.3699 59.003 29.1477 59.6098 30.0783 59.8719C30.2727 59.9249 30.8699 59.9659 31.764 59.9913C32.264 60.0059 32.8561 60.0159 33.5227 60.0202L34.4845 60.0236H38.3405L38.3682 52.2043L38.4116 44.3983L38.8214 45.0052C39.2346 45.6052 39.7537 46.1568 40.3318 46.6288C40.8613 47.0594 41.4394 47.4236 42.0349 47.6973C42.5262 47.9231 43.0297 48.0873 43.5245 48.177C43.9099 48.2489 44.4603 48.277 45.0523 48.2675C46.0453 48.252 47.1582 48.1326 47.8023 47.9425C48.1408 47.8438 48.4967 47.6955 48.8474 47.5098C49.4759 47.1766 50.087 46.7232 50.5575 46.2189C51.0367 45.7086 51.0506 45.681 50.6704 45.9844C49.3561 47.0189 47.6061 46.7844 46.6599 45.4328L46.3197 44.9362L46.278 34.4136C46.2502 24.3186 46.2502 23.8497 46.5176 23.2846C46.9134 22.3881 47.6478 21.9192 48.7068 21.8502C49.2624 21.8166 49.745 21.8972 50.1478 22.0886C50.5731 22.2912 50.91 22.6174 51.1495 23.064L51.4742 23.6704L51.4464 34.3861C51.4186 40.2749 51.4464 45.0742 51.4898 45.0466C51.5454 45.019 51.6166 45.281 51.6721 45.612C51.6929 45.7806 51.7225 45.9362 51.7607 46.0827C51.9065 46.6318 52.1912 47.0529 52.7034 47.543C53.5506 48.3563 54.1166 48.439 58.4239 48.439H62.2225L62.1652 38.0548C62.0958 26.7874 62.0819 26.4288 61.3041 25.0634C60.3301 23.3122 58.7902 22.2502 56.1634 21.5054C55.1756 21.2296 54.7659 21.202 51.8995 21.202C48.5662 21.202 47.1252 21.3813 45.4308 21.9744C43.0019 22.8295 40.6287 24.5531 39.0332 26.6081C38.7085 27.0495 38.3839 27.4632 38.3266 27.5184C38.271 27.5874 38.1564 27.2288 38.0731 26.7185C37.8318 25.3806 37.422 24.6358 36.3769 23.6156C36.1564 23.404 35.9359 23.2109 35.7085 23.0334C34.8387 22.3545 33.8682 21.9046 32.4793 21.533C32.1755 21.4533 31.9047 21.3934 31.6008 21.3477C30.955 21.2507 30.1599 21.2162 28.5956 21.1882C27.0852 21.1744 25.4324 21.202 24.9376 21.271Z" fill="#DE4848"/>
<path d="M71.4222 9.6407C72.0941 8.30415 73.4274 7.29861 74.7972 7.10767C78.2382 6.63702 80.9014 9.84456 79.7122 13.0396C79.2851 14.1852 78.108 15.28 76.9309 15.6364C75.8962 15.9545 75.2121 15.967 74.2798 15.6998C73.0125 15.3308 72.108 14.5796 71.4743 13.3577C71.3024 13.0267 71.2104 12.8138 71.1618 12.5254C71.1201 12.2703 71.1114 11.9561 71.1114 11.4483C71.1114 10.4428 71.1635 10.1372 71.4222 9.6407Z" fill="#DE4848"/>
<path d="M20.584 128L20.568 121.296L17.272 126.816H16.12L12.824 121.424V128H10.392V116.8H12.536L16.728 123.76L20.856 116.8H23L23.016 128H20.584ZM30.1343 122.144C31.2543 122.155 32.1023 122.405 32.6783 122.896C33.2543 123.387 33.5423 124.091 33.5423 125.008C33.5423 125.968 33.2169 126.709 32.5663 127.232C31.9156 127.755 30.9929 128.016 29.7983 128.016L25.6063 128V119.392H28.0863V122.144H30.1343ZM34.4703 119.392H36.9503V128H34.4703V119.392ZM29.5743 126.24C30.0543 126.251 30.4223 126.149 30.6783 125.936C30.9343 125.723 31.0623 125.403 31.0623 124.976C31.0623 124.56 30.9343 124.256 30.6783 124.064C30.4329 123.872 30.0649 123.771 29.5743 123.76L28.0863 123.744V126.24H29.5743ZM51.1195 121.44H48.2075V128H45.7275V121.44H42.8155V119.392H51.1195V121.44ZM61.1521 119.392L57.2641 128.528C56.8695 129.52 56.3788 130.219 55.7921 130.624C55.2161 131.029 54.5175 131.232 53.6961 131.232C53.2481 131.232 52.8055 131.163 52.3681 131.024C51.9308 130.885 51.5735 130.693 51.2961 130.448L52.2081 128.672C52.4001 128.843 52.6188 128.976 52.8641 129.072C53.1201 129.168 53.3708 129.216 53.6161 129.216C53.9575 129.216 54.2348 129.131 54.4481 128.96C54.6615 128.8 54.8535 128.528 55.0241 128.144L55.0561 128.064L51.3281 119.392H53.9041L56.3201 125.232L58.7521 119.392H61.1521ZM69.6664 121.44H66.7544V128H64.2744V121.44H61.3624V119.392H69.6664V121.44Z" fill="#DE4848"/>
</svg>
