<svg width="42" height="42" viewBox="0 0 42 42" fill="none" xmlns="http://www.w3.org/2000/svg">
<circle cx="21" cy="21" r="21" fill="white"/>
<path d="M12.92 17.52C13.7093 17.52 14.424 17.7013 15.064 18.064C15.704 18.416 16.2053 18.9173 16.568 19.568C16.9307 20.2187 17.112 20.96 17.112 21.792C17.112 22.6347 16.9307 23.3813 16.568 24.032C16.2053 24.6827 15.704 25.1893 15.064 25.552C14.4347 25.904 13.72 26.08 12.92 26.08C12.2373 26.08 11.6187 25.9413 11.064 25.664C10.52 25.376 10.072 24.96 9.72 24.416V29.104H8.584V17.584H9.672V19.248C10.0133 18.6933 10.4613 18.2667 11.016 17.968C11.5813 17.6693 12.216 17.52 12.92 17.52ZM12.84 25.072C13.4267 25.072 13.96 24.9387 14.44 24.672C14.92 24.3947 15.2933 24.0053 15.56 23.504C15.8373 23.0027 15.976 22.432 15.976 21.792C15.976 21.152 15.8373 20.5867 15.56 20.096C15.2933 19.5947 14.92 19.2053 14.44 18.928C13.96 18.6507 13.4267 18.512 12.84 18.512C12.2427 18.512 11.704 18.6507 11.224 18.928C10.7547 19.2053 10.3813 19.5947 10.104 20.096C9.83733 20.5867 9.704 21.152 9.704 21.792C9.704 22.432 9.83733 23.0027 10.104 23.504C10.3813 24.0053 10.7547 24.3947 11.224 24.672C11.704 24.9387 12.2427 25.072 12.84 25.072ZM27.1078 14.128V26H26.0198V24.336C25.6784 24.9013 25.2251 25.3333 24.6598 25.632C24.1051 25.9307 23.4758 26.08 22.7718 26.08C21.9824 26.08 21.2678 25.8987 20.6278 25.536C19.9878 25.1733 19.4864 24.6667 19.1238 24.016C18.7611 23.3653 18.5798 22.624 18.5798 21.792C18.5798 20.96 18.7611 20.2187 19.1238 19.568C19.4864 18.9173 19.9878 18.416 20.6278 18.064C21.2678 17.7013 21.9824 17.52 22.7718 17.52C23.4544 17.52 24.0678 17.664 24.6118 17.952C25.1664 18.2293 25.6198 18.64 25.9718 19.184V14.128H27.1078ZM22.8678 25.072C23.4544 25.072 23.9824 24.9387 24.4518 24.672C24.9318 24.3947 25.3051 24.0053 25.5718 23.504C25.8491 23.0027 25.9878 22.432 25.9878 21.792C25.9878 21.152 25.8491 20.5813 25.5718 20.08C25.3051 19.5787 24.9318 19.1947 24.4518 18.928C23.9824 18.6507 23.4544 18.512 22.8678 18.512C22.2704 18.512 21.7318 18.6507 21.2518 18.928C20.7824 19.1947 20.4091 19.5787 20.1318 20.08C19.8651 20.5813 19.7318 21.152 19.7318 21.792C19.7318 22.432 19.8651 23.0027 20.1318 23.504C20.4091 24.0053 20.7824 24.3947 21.2518 24.672C21.7318 24.9387 22.2704 25.072 22.8678 25.072ZM33.0555 15.008C32.5648 15.008 32.1915 15.1413 31.9355 15.408C31.6902 15.6747 31.5675 16.0693 31.5675 16.592V17.584H34.1595V18.544H31.5995V26H30.4635V18.544H28.9595V17.584H30.4635V16.544C30.4635 15.776 30.6822 15.168 31.1195 14.72C31.5675 14.272 32.1968 14.048 33.0075 14.048C33.3275 14.048 33.6368 14.096 33.9355 14.192C34.2342 14.2773 34.4848 14.4053 34.6875 14.576L34.3035 15.424C33.9728 15.1467 33.5568 15.008 33.0555 15.008Z" fill="white"/>
<path d="M12.92 17.52C13.7093 17.52 14.424 17.7013 15.064 18.064C15.704 18.416 16.2053 18.9173 16.568 19.568C16.9307 20.2187 17.112 20.96 17.112 21.792C17.112 22.6347 16.9307 23.3813 16.568 24.032C16.2053 24.6827 15.704 25.1893 15.064 25.552C14.4347 25.904 13.72 26.08 12.92 26.08C12.2373 26.08 11.6187 25.9413 11.064 25.664C10.52 25.376 10.072 24.96 9.72 24.416V29.104H8.584V17.584H9.672V19.248C10.0133 18.6933 10.4613 18.2667 11.016 17.968C11.5813 17.6693 12.216 17.52 12.92 17.52ZM12.84 25.072C13.4267 25.072 13.96 24.9387 14.44 24.672C14.92 24.3947 15.2933 24.0053 15.56 23.504C15.8373 23.0027 15.976 22.432 15.976 21.792C15.976 21.152 15.8373 20.5867 15.56 20.096C15.2933 19.5947 14.92 19.2053 14.44 18.928C13.96 18.6507 13.4267 18.512 12.84 18.512C12.2427 18.512 11.704 18.6507 11.224 18.928C10.7547 19.2053 10.3813 19.5947 10.104 20.096C9.83733 20.5867 9.704 21.152 9.704 21.792C9.704 22.432 9.83733 23.0027 10.104 23.504C10.3813 24.0053 10.7547 24.3947 11.224 24.672C11.704 24.9387 12.2427 25.072 12.84 25.072ZM27.1078 14.128V26H26.0198V24.336C25.6784 24.9013 25.2251 25.3333 24.6598 25.632C24.1051 25.9307 23.4758 26.08 22.7718 26.08C21.9824 26.08 21.2678 25.8987 20.6278 25.536C19.9878 25.1733 19.4864 24.6667 19.1238 24.016C18.7611 23.3653 18.5798 22.624 18.5798 21.792C18.5798 20.96 18.7611 20.2187 19.1238 19.568C19.4864 18.9173 19.9878 18.416 20.6278 18.064C21.2678 17.7013 21.9824 17.52 22.7718 17.52C23.4544 17.52 24.0678 17.664 24.6118 17.952C25.1664 18.2293 25.6198 18.64 25.9718 19.184V14.128H27.1078ZM22.8678 25.072C23.4544 25.072 23.9824 24.9387 24.4518 24.672C24.9318 24.3947 25.3051 24.0053 25.5718 23.504C25.8491 23.0027 25.9878 22.432 25.9878 21.792C25.9878 21.152 25.8491 20.5813 25.5718 20.08C25.3051 19.5787 24.9318 19.1947 24.4518 18.928C23.9824 18.6507 23.4544 18.512 22.8678 18.512C22.2704 18.512 21.7318 18.6507 21.2518 18.928C20.7824 19.1947 20.4091 19.5787 20.1318 20.08C19.8651 20.5813 19.7318 21.152 19.7318 21.792C19.7318 22.432 19.8651 23.0027 20.1318 23.504C20.4091 24.0053 20.7824 24.3947 21.2518 24.672C21.7318 24.9387 22.2704 25.072 22.8678 25.072ZM33.0555 15.008C32.5648 15.008 32.1915 15.1413 31.9355 15.408C31.6902 15.6747 31.5675 16.0693 31.5675 16.592V17.584H34.1595V18.544H31.5995V26H30.4635V18.544H28.9595V17.584H30.4635V16.544C30.4635 15.776 30.6822 15.168 31.1195 14.72C31.5675 14.272 32.1968 14.048 33.0075 14.048C33.3275 14.048 33.6368 14.096 33.9355 14.192C34.2342 14.2773 34.4848 14.4053 34.6875 14.576L34.3035 15.424C33.9728 15.1467 33.5568 15.008 33.0555 15.008Z" fill="#DE4848"/>
</svg>
