<svg width="42.000000" height="42.000000" viewBox="0 0 42 42" fill="none" xmlns="http://www.w3.org/2000/svg" xmlns:xlink="http://www.w3.org/1999/xlink">
	<desc>
			Created with Pixso.
	</desc>
	<defs/>
	<circle id="Ellipse 48" cx="21.000000" cy="21.000000" r="21.000000" fill="#DE4848" fill-opacity="1.000000"/>
	<path id="pdf" d="M12.9219 17.5195Q14.1055 17.5195 15.0625 18.0586Q16.0234 18.5938 16.5664 19.5703Q17.1133 20.543 17.1133 21.793Q17.1133 23.0547 16.5664 24.0312Q16.0234 25.0078 15.0703 25.543Q14.1211 26.0781 12.9219 26.0781Q11.8945 26.0781 11.0703 25.6562Q10.2461 25.2305 9.71875 24.4141L9.71875 29.1055L8.58594 29.1055L8.58594 17.5859L9.67188 17.5859L9.67188 19.2461Q10.1836 18.4141 11.0234 17.9688Q11.8633 17.5195 12.9219 17.5195ZM12.8398 25.0703Q13.7188 25.0703 14.4375 24.6641Q15.1602 24.2578 15.5664 23.5078Q15.9766 22.7539 15.9766 21.793Q15.9766 20.832 15.5664 20.0898Q15.1602 19.3438 14.4375 18.9297Q13.7188 18.5117 12.8398 18.5117Q11.9453 18.5117 11.2305 18.9297Q10.5195 19.3438 10.1094 20.0898Q9.70312 20.832 9.70312 21.793Q9.70312 22.7539 10.1094 23.5078Q10.5195 24.2578 11.2305 24.6641Q11.9453 25.0703 12.8398 25.0703ZM27.1136 14.1289L27.1136 26L26.0238 26L26.0238 24.3359Q25.5121 25.1836 24.6722 25.6328Q23.8324 26.0781 22.7777 26.0781Q21.5902 26.0781 20.6292 25.5352Q19.6722 24.9922 19.1253 24.0156Q18.5824 23.0391 18.5824 21.793Q18.5824 20.543 19.1253 19.5703Q19.6722 18.5938 20.6292 18.0586Q21.5902 17.5195 22.7777 17.5195Q23.8011 17.5195 24.6253 17.9453Q25.4496 18.3672 25.9769 19.1836L25.9769 14.1289L27.1136 14.1289ZM22.8714 25.0703Q23.7503 25.0703 24.4613 24.6641Q25.1761 24.2578 25.5824 23.5078Q25.9925 22.7539 25.9925 21.793Q25.9925 20.832 25.5824 20.082Q25.1761 19.3281 24.4613 18.9219Q23.7503 18.5117 22.8714 18.5117Q21.9769 18.5117 21.2621 18.9219Q20.5511 19.3281 20.141 20.082Q19.7347 20.832 19.7347 21.793Q19.7347 22.7539 20.141 23.5078Q20.5511 24.2578 21.2621 24.6641Q21.9769 25.0703 22.8714 25.0703ZM33.0632 15.0078Q32.3288 15.0078 31.9499 15.4102Q31.5749 15.8086 31.5749 16.5938L31.5749 17.5859L34.1687 17.5859L34.1687 18.543L31.6062 18.543L31.6062 26L30.4733 26L30.4733 18.543L28.9694 18.543L28.9694 17.5859L30.4733 17.5859L30.4733 16.543Q30.4733 15.3906 31.1374 14.7188Q31.8015 14.0469 33.0163 14.0469Q33.4968 14.0469 33.9421 14.1836Q34.3913 14.3203 34.696 14.5742L34.3132 15.4258Q33.8171 15.0078 33.0632 15.0078Z" fill="#DE4848" fill-opacity="0" fill-rule="evenodd"/>
	<path id="pdf" d="M12.9219 17.5195Q14.1055 17.5195 15.0625 18.0586Q16.0234 18.5938 16.5664 19.5703Q17.1133 20.543 17.1133 21.793Q17.1133 23.0547 16.5664 24.0312Q16.0234 25.0078 15.0703 25.543Q14.1211 26.0781 12.9219 26.0781Q11.8945 26.0781 11.0703 25.6562Q10.2461 25.2305 9.71875 24.4141L9.71875 29.1055L8.58594 29.1055L8.58594 17.5859L9.67188 17.5859L9.67188 19.2461Q10.1836 18.4141 11.0234 17.9688Q11.8633 17.5195 12.9219 17.5195ZM12.8398 25.0703Q13.7188 25.0703 14.4375 24.6641Q15.1602 24.2578 15.5664 23.5078Q15.9766 22.7539 15.9766 21.793Q15.9766 20.832 15.5664 20.0898Q15.1602 19.3438 14.4375 18.9297Q13.7188 18.5117 12.8398 18.5117Q11.9453 18.5117 11.2305 18.9297Q10.5195 19.3438 10.1094 20.0898Q9.70312 20.832 9.70312 21.793Q9.70312 22.7539 10.1094 23.5078Q10.5195 24.2578 11.2305 24.6641Q11.9453 25.0703 12.8398 25.0703ZM27.1136 14.1289L27.1136 26L26.0238 26L26.0238 24.3359Q25.5121 25.1836 24.6722 25.6328Q23.8324 26.0781 22.7777 26.0781Q21.5902 26.0781 20.6292 25.5352Q19.6722 24.9922 19.1253 24.0156Q18.5824 23.0391 18.5824 21.793Q18.5824 20.543 19.1253 19.5703Q19.6722 18.5938 20.6292 18.0586Q21.5902 17.5195 22.7777 17.5195Q23.8011 17.5195 24.6253 17.9453Q25.4496 18.3672 25.9769 19.1836L25.9769 14.1289L27.1136 14.1289ZM22.8714 25.0703Q23.7503 25.0703 24.4613 24.6641Q25.1761 24.2578 25.5824 23.5078Q25.9925 22.7539 25.9925 21.793Q25.9925 20.832 25.5824 20.082Q25.1761 19.3281 24.4613 18.9219Q23.7503 18.5117 22.8714 18.5117Q21.9769 18.5117 21.2621 18.9219Q20.5511 19.3281 20.141 20.082Q19.7347 20.832 19.7347 21.793Q19.7347 22.7539 20.141 23.5078Q20.5511 24.2578 21.2621 24.6641Q21.9769 25.0703 22.8714 25.0703ZM33.0632 15.0078Q32.3288 15.0078 31.9499 15.4102Q31.5749 15.8086 31.5749 16.5938L31.5749 17.5859L34.1687 17.5859L34.1687 18.543L31.6062 18.543L31.6062 26L30.4733 26L30.4733 18.543L28.9694 18.543L28.9694 17.5859L30.4733 17.5859L30.4733 16.543Q30.4733 15.3906 31.1374 14.7188Q31.8015 14.0469 33.0163 14.0469Q33.4968 14.0469 33.9421 14.1836Q34.3913 14.3203 34.696 14.5742L34.3132 15.4258Q33.8171 15.0078 33.0632 15.0078Z" fill="#FFFFFF" fill-opacity="1.000000" fill-rule="evenodd"/>
</svg>
