<!DOCTYPE svg PUBLIC "-//W3C//DTD SVG 1.1//EN" "http://www.w3.org/Graphics/SVG/1.1/DTD/svg11.dtd">
<!-- Uploaded to: SVG Repo, www.svgrepo.com, Transformed by: SVG Repo Mixer Tools -->
<svg fill="#ffffff" height="256px" width="256px" version="1.1" id="Layer_1" xmlns="http://www.w3.org/2000/svg" xmlns:xlink="http://www.w3.org/1999/xlink" viewBox="-14.08 -14.08 92.16 92.16" enable-background="new 0 0 64 64" xml:space="preserve" transform="rotate(0)matrix(1, 0, 0, 1, 0, 0)" stroke="#ffffff" stroke-width="0.8960000000000001">
<g id="SVGRepo_bgCarrier" stroke-width="0" transform="translate(0,0), scale(1)">
<path transform="translate(-14.08, -14.08), scale(5.76)" fill="#DE4848" d="M9.166.33a2.25 2.25 0 00-2.332 0l-5.25 3.182A2.25 2.25 0 00.5 5.436v5.128a2.25 2.25 0 001.084 1.924l5.25 3.182a2.25 2.25 0 002.332 0l5.25-3.182a2.25 2.25 0 001.084-1.924V5.436a2.25 2.25 0 00-1.084-1.924L9.166.33z" strokewidth="0"/>
</g>
<g id="SVGRepo_tracerCarrier" stroke-linecap="round" stroke-linejoin="round" stroke="#CCCCCC" stroke-width="1.152"/>
<g id="SVGRepo_iconCarrier"> <g id="Play"> <path d="M46.0136986,31.1054993L25.1973,20.6973c-0.3096008-0.1532993-0.6777992-0.1387005-0.9727001,0.0438995 C23.9297009,20.9237995,23.75,21.2451,23.75,21.5918007v20.8163986c0,0.3467026,0.1797009,0.6679993,0.4745998,0.8506012 C24.3848,43.3583984,24.5674,43.4081993,24.75,43.4081993c0.1532993,0,0.3057003-0.035099,0.4473-0.1054001l20.8163986-10.4081993 c0.3388023-0.1699982,0.5527-0.5157013,0.5527-0.8945999C46.5663986,31.6210995,46.3525009,31.2754002,46.0136986,31.1054993z M25.75,40.7901001v-17.580101L43.330101,32L25.75,40.7901001z"/> <path d="M32,0C14.3268995,0,0,14.3268995,0,32s14.3268995,32,32,32s32-14.3269005,32-32S49.6730995,0,32,0z M32,62 C15.4579,62,2,48.542099,2,32C2,15.4580002,15.4579,2,32,2c16.5419998,0,30,13.4580002,30,30C62,48.542099,48.5419998,62,32,62z"/> </g> </g>
</svg>