<svg width="60" height="60" viewBox="0 0 60 60" fill="none" xmlns="http://www.w3.org/2000/svg">
<circle cx="30" cy="30" r="30" fill="#DE4848"/>
<path d="M18.4324 17.2071C18.2345 17.2131 18.0398 17.2563 17.86 17.334C17.6802 17.4118 17.5189 17.5226 17.3855 17.6598C17.2522 17.797 17.1497 17.9579 17.0839 18.133C17.0182 18.308 16.9906 18.4936 17.0028 18.6788C17.2006 21.8551 18.1329 29.6053 22.597 34.4386C27.9425 40.2619 34.9042 42.2682 42.0466 41.9718C42.4295 41.9503 42.7894 41.7936 43.0537 41.5332C43.318 41.2728 43.467 40.9282 43.4706 40.5689V35.4815C43.4661 35.0068 43.2916 34.5473 42.9749 34.1768C42.6583 33.8062 42.2179 33.546 41.7245 33.4381L38.1476 32.6969C37.7053 32.6086 37.2447 32.6466 36.8257 32.8061C36.4066 32.9656 36.0483 33.2392 35.797 33.5916L35.0059 34.7139C34.9332 34.8166 34.8247 34.8923 34.6988 34.9281C34.573 34.9638 34.4378 34.9574 34.3165 34.9098C32.497 34.1739 25.2472 30.9976 24.4504 25.6402C24.4348 25.5367 24.4522 25.4313 24.5005 25.3371C24.5488 25.2429 24.6257 25.1641 24.7216 25.1108L26.1569 24.2903C26.5506 24.0617 26.8598 23.7254 27.0427 23.3267C27.2257 22.9281 27.2735 22.4865 27.1797 22.0616L26.3942 18.6523C26.2794 18.1746 25.9914 17.749 25.5793 17.4479C25.1672 17.1467 24.6565 16.9887 24.134 17.0006L18.4324 17.2071Z" fill="white"/>
</svg>
