<?xml version="1.0" standalone="no"?>
<!DOCTYPE svg PUBLIC "-//W3C//DTD SVG 20010904//EN"
 "http://www.w3.org/TR/2001/REC-SVG-20010904/DTD/svg10.dtd">
<svg version="1.0" xmlns="http://www.w3.org/2000/svg"
 width="808.000000pt" height="808.000000pt" viewBox="0 0 808.000000 808.000000"
 preserveAspectRatio="xMidYMid meet">
<metadata>
Created by potrace 1.14, written by Peter Selinger 2001-2017
</metadata>
<g transform="translate(0.000000,808.000000) scale(0.100000,-0.100000)"
fill="#000000" stroke="none">
<path d="M2078 7245 c-2 -2 -25 -6 -53 -9 -296 -38 -536 -107 -749 -216 -151
-77 -199 -103 -206 -111 -3 -3 -31 -22 -63 -43 -33 -20 -64 -41 -70 -46 -7 -5
-48 -37 -92 -72 -73 -56 -185 -156 -224 -201 -9 -10 -32 -35 -51 -56 -19 -20
-46 -52 -60 -70 -14 -19 -32 -41 -40 -50 -78 -86 -240 -373 -295 -521 -48
-127 -73 -200 -69 -200 3 0 0 -9 -6 -20 -17 -31 -63 -223 -75 -310 -27 -195
-27 -718 0 -875 2 -16 7 -43 9 -60 9 -55 24 -139 35 -185 5 -25 12 -59 15 -75
3 -17 24 -93 46 -170 49 -169 48 -165 70 -220 4 -11 14 -36 21 -55 30 -83 132
-282 190 -370 94 -143 216 -277 323 -355 22 -16 43 -32 46 -36 3 -3 34 -21 70
-40 36 -19 68 -38 71 -42 3 -5 10 -9 15 -9 11 0 52 -15 79 -28 18 -9 126 -35
165 -40 47 -6 454 -3 500 3 238 34 450 138 617 303 73 71 75 74 33 50 -25 -15
-74 -41 -109 -58 -60 -29 -70 -31 -185 -31 -101 0 -128 3 -166 20 -90 41 -193
155 -224 248 -10 29 -19 100 -23 184 -9 190 -9 2972 0 3156 13 268 27 309 128
394 74 62 126 90 196 107 136 32 299 -18 400 -123 43 -45 88 -115 86 -133 -1
-3 3 -12 8 -22 5 -9 12 -72 15 -140 9 -171 9 -4276 0 -4693 -4 -187 -9 -445
-11 -574 l-4 -235 40 -80 c47 -93 76 -135 133 -191 45 -43 71 -62 99 -71 9 -4
17 -9 17 -13 0 -16 114 -51 183 -57 159 -14 1242 -22 1255 -10 3 4 7 287 8
629 5 1384 9 1947 15 1947 3 0 32 -39 65 -87 59 -88 230 -273 252 -273 7 0 12
-4 12 -9 0 -8 142 -111 154 -111 3 0 27 -12 53 -28 69 -39 179 -81 258 -97
118 -25 429 -24 558 1 12 2 39 6 60 9 22 4 49 10 61 14 11 5 23 8 26 8 21 -2
141 52 227 101 47 28 167 122 197 156 6 7 29 32 51 56 l40 44 -55 -39 c-93
-66 -175 -96 -260 -96 -164 -2 -291 70 -393 223 l-39 57 -1 1693 c-2 1524 1
1773 18 1858 10 49 58 132 103 176 84 83 170 113 318 109 179 -4 274 -65 357
-227 l37 -73 -2 -1760 c-2 -1615 -1 -1764 14 -1810 9 -27 19 -68 23 -90 17
-123 61 -205 164 -305 148 -146 187 -151 1031 -154 l504 -1 -1 195 c-1 107 -4
681 -8 1275 -10 1725 -15 1920 -50 2174 -3 24 -8 48 -11 53 -3 4 -7 21 -10 36
-2 15 -20 59 -39 98 -119 244 -297 416 -557 538 -92 43 -308 120 -364 129 -16
3 -41 8 -55 12 -14 3 -41 7 -60 8 -19 2 -38 5 -44 8 -12 6 -805 3 -895 -4
-114 -9 -237 -23 -280 -31 -8 -1 -37 -7 -65 -11 -58 -10 -55 -10 -75 -18 -8
-4 -26 -8 -40 -11 -73 -12 -286 -97 -410 -163 -316 -168 -589 -405 -808 -700
-41 -57 -79 -103 -83 -103 -8 0 -22 45 -34 110 -12 68 -28 135 -35 155 -5 11
-21 53 -36 93 -15 39 -31 72 -36 72 -4 0 -8 5 -8 10 0 34 -173 225 -275 304
-33 26 -65 51 -71 55 -26 20 -154 89 -214 114 -149 62 -339 111 -483 124 -62
5 -894 13 -899 8z"/>
</g>
</svg>
